<?xml version="1.0" standalone="no"?>
<!DOCTYPE svg PUBLIC "-//W3C//DTD SVG 20010904//EN"
 "http://www.w3.org/TR/2001/REC-SVG-20010904/DTD/svg10.dtd">
<svg version="1.0" xmlns="http://www.w3.org/2000/svg"
 width="442.000000pt" height="442.000000pt" viewBox="0 0 442.000000 442.000000"
 preserveAspectRatio="xMidYMid meet">
<metadata>
Created by potrace 1.14, written by Peter Selinger 2001-2017
</metadata>
<g transform="translate(0.000000,442.000000) scale(0.100000,-0.100000)"
fill="#000000" stroke="none">
<path d="M20 2210 c0 -1953 2 -2210 15 -2210 13 0 15 254 17 2174 l3 2174 25
27 c14 15 34 31 45 35 14 6 0 9 -42 9 l-63 1 0 -2210z"/>
<path d="M4295 4410 c11 -4 31 -20 45 -35 l25 -27 3 -2174 c2 -1920 4 -2174
17 -2174 13 0 15 257 15 2210 l0 2210 -62 -1 c-43 0 -57 -3 -43 -9z"/>
<path d="M1956 3508 c-9 -26 -27 -246 -27 -320 l0 -75 -46 -22 c-45 -22 -45
-23 -40 -62 5 -39 4 -40 -51 -76 -229 -146 -347 -440 -329 -818 11 -230 54
-413 139 -595 32 -69 113 -192 147 -224 30 -29 41 -56 21 -56 -18 0 -83 -65
-96 -97 -11 -25 -23 -35 -54 -43 -46 -12 -120 -46 -172 -78 l-36 -23 -38 26
c-90 61 -261 83 -389 50 -184 -47 -328 -160 -403 -315 -23 -47 -46 -109 -53
-139 -14 -65 -8 -247 9 -278 l13 -23 423 0 424 0 6 23 c10 38 7 118 -9 206 -8
47 -13 86 -11 88 8 8 100 -54 120 -80 18 -24 21 -42 21 -133 l0 -104 1303 0
1302 0 0 348 0 348 -55 33 c-30 18 -94 47 -142 64 -81 29 -99 31 -218 32 -102
0 -142 -4 -185 -19 -90 -30 -189 -86 -247 -140 -43 -39 -57 -47 -64 -35 -5 8
-9 21 -9 29 0 8 -15 42 -33 75 -41 75 -91 107 -216 138 -84 21 -94 26 -107 54
-9 18 -34 41 -62 56 -41 21 -73 31 -180 53 -22 4 -22 6 17 62 52 77 86 160
106 261 16 75 16 111 6 355 -17 412 -42 556 -123 724 -71 146 -175 237 -308
269 -59 14 -74 22 -86 45 -11 22 -22 27 -56 30 -36 3 -43 7 -51 33 -5 17 -29
85 -53 153 -61 171 -97 236 -108 200z m63 -141 c16 -45 43 -117 59 -159 l30
-77 -22 -20 c-27 -25 -83 -35 -120 -21 l-29 11 6 87 c8 130 28 272 37 267 5
-3 22 -42 39 -88z m-189 -612 c11 -30 -5 -81 -30 -95 -24 -13 -66 -13 -91 0
-38 21 -18 83 34 105 49 22 76 19 87 -10z m-135 -165 c11 -17 -7 -59 -27 -66
-12 -3 -41 -25 -65 -47 l-44 -41 7 30 c11 46 42 101 66 118 25 18 54 21 63 6z
m623 -36 c15 -17 22 -38 22 -66 0 -36 -6 -47 -44 -83 -48 -47 -86 -59 -139
-44 -67 18 -108 104 -85 175 12 36 17 40 58 45 25 4 72 5 105 3 48 -4 64 -10
83 -30z m-403 -36 c73 -87 -37 -225 -149 -188 -55 18 -81 54 -81 110 0 60 14
76 81 95 85 23 119 19 149 -17z m-329 -257 c14 -16 40 -35 58 -41 39 -13 54
-49 63 -156 7 -85 -3 -96 -53 -62 -48 31 -80 98 -93 192 -16 113 -15 115 25
67z"/>
<path d="M2193 2513 c-7 -2 -13 -18 -13 -34 0 -22 5 -29 19 -29 24 0 34 25 21
51 -6 10 -12 19 -13 18 -1 0 -8 -3 -14 -6z"/>
<path d="M1804 2466 c-9 -23 0 -51 17 -54 19 -4 32 23 24 49 -7 22 -33 25 -41
5z"/>
</g>
</svg>
